<?xml version="1.0" encoding="utf-8"?>
<!-- Generator: Adobe Illustrator 16.0.0, SVG Export Plug-In . SVG Version: 6.00 Build 0)  -->
<!DOCTYPE svg PUBLIC "-//W3C//DTD SVG 1.1//EN" "http://www.w3.org/Graphics/SVG/1.1/DTD/svg11.dtd">
<svg version="1.1" id="Layer_1" xmlns="http://www.w3.org/2000/svg" xmlns:xlink="http://www.w3.org/1999/xlink" x="0px" y="0px"
	 width="63px" height="63px" viewBox="928.5 93.5 63 63" enable-background="new 928.5 93.5 63 63" xml:space="preserve">
<path d="M964.869,109.423c0,2.688-2.18,4.868-4.869,4.868c-2.688,0-4.868-2.18-4.868-4.868c0-2.689,2.18-4.868,4.868-4.868
	C962.689,104.556,964.869,106.734,964.869,109.423z M960,120.132c-2.688,0-4.868,2.18-4.868,4.868c0,2.689,2.18,4.868,4.868,4.868
	c2.689,0,4.869-2.179,4.869-4.868C964.869,122.312,962.689,120.132,960,120.132z M960,135.71c-2.688,0-4.868,2.179-4.868,4.866
	c0,2.688,2.18,4.869,4.868,4.869c2.689,0,4.869-2.181,4.869-4.869C964.869,137.889,962.689,135.71,960,135.71z"/>
</svg>
