<?xml version="1.0" encoding="utf-8"?>
<!-- Generator: Adobe Illustrator 16.0.0, SVG Export Plug-In . SVG Version: 6.00 Build 0)  -->
<!DOCTYPE svg PUBLIC "-//W3C//DTD SVG 1.1//EN" "http://www.w3.org/Graphics/SVG/1.1/DTD/svg11.dtd">
<svg version="1.1" id="Layer_2" xmlns="http://www.w3.org/2000/svg" xmlns:xlink="http://www.w3.org/1999/xlink" x="0px" y="0px"
	 width="72px" height="72px" viewBox="0 0 72 72" enable-background="new 0 0 72 72" xml:space="preserve">
<path fill="#FAFAFA" d="M41.988,35.191h-5.179v-5.179c0-0.138-0.112-0.249-0.249-0.249h-1.121c-0.137,0-0.249,0.111-0.249,0.249
	v5.179h-5.179c-0.138,0-0.25,0.111-0.25,0.25v1.12c0,0.137,0.112,0.249,0.25,0.249h5.179v5.179c0,0.138,0.112,0.25,0.249,0.25h1.121
	c0.137,0,0.249-0.112,0.249-0.25v-5.179h5.179c0.138,0,0.25-0.112,0.25-0.249v-1.12C42.238,35.302,42.126,35.191,41.988,35.191z"/>
</svg>
