<?xml version="1.0" encoding="utf-8"?>
<!-- Generator: Adobe Illustrator 16.0.0, SVG Export Plug-In . SVG Version: 6.00 Build 0)  -->
<!DOCTYPE svg PUBLIC "-//W3C//DTD SVG 1.1//EN" "http://www.w3.org/Graphics/SVG/1.1/DTD/svg11.dtd">
<svg version="1.1" id="Layer_1" xmlns="http://www.w3.org/2000/svg" xmlns:xlink="http://www.w3.org/1999/xlink" x="0px" y="0px"
	 width="100px" height="100px" viewBox="0 0 100 100" enable-background="new 0 0 100 100" xml:space="preserve">
<g>
	<path fill-rule="evenodd" clip-rule="evenodd" fill="#FFFFFF" d="M61.299,7.602c-1.05-0.081-2.027,0.276-2.941,1.054l-0.447,0.38
		c-7.195,6.122-14.391,12.244-21.568,18.39c-1.353,1.158-2.88,1.721-4.67,1.721c-5.86-0.024-11.603-0.016-17.383-0.007
		c-2.986,0.004-5.12,1.541-5.856,4.214c-0.235,0.855-0.235,1.805-0.235,2.643L8.194,42.64c-0.005,5.113-0.01,10.225,0.015,15.337
		c0.005,1.031-0.007,2.063-0.02,3.095c-0.028,2.33-0.057,4.739,0.129,7.095c0.203,2.578,2.524,4.809,5.068,4.869
		c3.104,0.073,6.213,0.046,9.321,0.019l0.335-0.003c0.978-0.008,1.723-0.506,2.217-1.481c0.454-0.898,0.402-1.752-0.158-2.609
		c-0.577-0.884-1.443-1.296-2.726-1.296l-0.887,0.001l-3.354-0.005c-1.067,0-2.134,0.005-3.2,0.021
		c-0.361-0.014-0.746-0.035-1.027-0.318c-0.285-0.285-0.323-0.687-0.322-1.043c0.019-10.1,0.021-20.198-0.001-30.297
		c-0.001-0.396,0.04-0.842,0.35-1.153c0.311-0.311,0.754-0.351,1.106-0.351c2.541,0.015,5.059,0.018,7.577,0.018l4.512-0.001
		c1.573,0,3.147,0.001,4.721,0.005c2.896,0,5.402-0.891,7.49-2.647c3.735-3.14,7.445-6.31,11.155-9.48l4.851-4.14
		c0.693-0.59,1.389-1.177,2.085-1.763l1.267-1.068l0.693,0.375l0.068,0.334l-0.007,50.478c0.001,6.194,0.003,12.388,0.001,18.581
		c0,0.042,0.007,0.088,0.013,0.135c0.029,0.237,0.098,0.792-0.441,1.046c-0.1,0.048-0.207,0.071-0.315,0.071
		c-0.343,0-0.571-0.23-0.722-0.383c-0.03-0.031-0.059-0.062-0.088-0.086c-4.339-3.666-8.676-7.335-13.013-11.004l-4.954-4.194
		c-0.962-0.819-1.924-1.639-2.906-2.434c-0.575-0.466-1.137-0.692-1.718-0.692c-0.318,0-0.648,0.071-0.981,0.211
		c-1.007,0.423-1.562,1.14-1.695,2.189c-0.13,1.023,0.281,1.854,1.374,2.775c3.701,3.117,7.395,6.244,11.088,9.371
		c2.589,2.192,5.179,4.385,7.771,6.574l1.245,1.059c1.502,1.28,3.056,2.604,4.648,3.809c0.724,0.547,1.536,0.837,2.347,0.837
		c1.293,0,2.45-0.712,3.175-1.952c0.507-0.868,0.548-1.875,0.548-3.006l-0.01-16.147l0.012-33.807
		c0.002-7.037,0.005-14.075-0.012-21.112c-0.002-0.735,0.01-1.472,0.022-2.208c0.029-1.754,0.06-3.569-0.118-5.332
		C64.53,9.025,63.218,7.75,61.299,7.602z"/>
	<path fill-rule="evenodd" clip-rule="evenodd" fill="#FFFFFF" d="M75.358,37.438c1.078,0.477,2.167,0.208,3.154-0.768
		c1.776-1.757,3.539-3.527,5.301-5.297L85,30.189c0.833-0.826,1.694-1.68,2.485-2.561c0.901-1.003,0.688-2.083,0.351-2.813
		c-0.456-0.987-1.268-1.497-2.415-1.518l-0.137-0.003c-0.678,0-1.286,0.278-1.859,0.85c-2.956,2.951-5.909,5.905-8.854,8.865
		c-0.554,0.556-0.834,1.165-0.859,1.861C73.676,35.953,74.337,36.986,75.358,37.438z"/>
	<path fill-rule="evenodd" clip-rule="evenodd" fill="#FFFFFF" d="M91.735,47.235c-0.298-1.129-1.285-1.909-2.457-1.939
		c-1.527-0.041-3.055-0.032-4.583-0.022c-0.65,0.003-1.301,0.007-1.951,0.007l-3.789-0.028c-0.811,0-1.622,0.004-2.433,0.017
		c-1.611,0.026-2.819,1.178-2.81,2.68c0.01,1.555,1.185,2.692,2.794,2.702c4.229,0.026,8.459,0.033,12.69-0.004
		c0.832-0.007,1.591-0.381,2.083-1.026C91.792,48.95,91.958,48.08,91.735,47.235z"/>
	<path fill-rule="evenodd" clip-rule="evenodd" fill="#FFFFFF" d="M78.249,60.832c-0.44-0.438-0.979-0.683-1.604-0.726
		c-0.073-0.005-0.146-0.008-0.218-0.008c-1.065,0-1.951,0.55-2.429,1.51c-0.521,1.048-0.358,2.132,0.449,2.974
		c1.226,1.278,2.48,2.528,3.735,3.779l1.317,1.314c1.276,1.282,2.556,2.561,3.838,3.837c0.958,0.958,1.958,1.199,3.104,0.747
		c1.01-0.397,1.64-1.343,1.644-2.468c0.02-0.728-0.213-1.336-0.692-1.818C84.353,66.917,81.302,63.871,78.249,60.832z"/>
</g>
</svg>
