<?xml version="1.0" encoding="utf-8"?>
<!-- Generator: Adobe Illustrator 16.0.0, SVG Export Plug-In . SVG Version: 6.00 Build 0)  -->
<!DOCTYPE svg PUBLIC "-//W3C//DTD SVG 1.1//EN" "http://www.w3.org/Graphics/SVG/1.1/DTD/svg11.dtd">
<svg version="1.1" id="Layer_1" xmlns="http://www.w3.org/2000/svg" xmlns:xlink="http://www.w3.org/1999/xlink" x="0px" y="0px"
	 width="100px" height="100px" viewBox="0 0 100 100" enable-background="new 0 0 100 100" xml:space="preserve">
<g>
	<path fill="#FFFFFF" d="M91.226,47.914c-12.778-12.783-25.562-25.56-38.354-38.33c-1.986-1.982-3.681-1.977-5.688,0.009
		c-1.529,1.513-3.047,3.035-4.565,4.557l-8.494,8.498c-8.427,8.428-16.854,16.855-25.287,25.276
		c-1.028,1.025-1.615,1.802-1.575,2.712c-0.019,1.987,1.24,3.466,3.061,3.598c0.087,0.006,0.172,0.009,0.256,0.009
		c1.018,0,1.848-0.435,2.962-1.55c9.019-9.035,18.049-18.058,27.08-27.081l6.994-6.988c1.073-1.072,1.624-1.587,2.433-1.587
		c0.806,0,1.346,0.504,2.395,1.554l11.221,11.221c7.615,7.617,15.23,15.233,22.851,22.844c0.987,0.986,1.986,1.486,2.968,1.486
		c0.813,0,1.566-0.342,2.238-1.018C93.236,51.6,93.06,49.749,91.226,47.914z"/>
	<path fill="#FFFFFF" d="M83.847,63.81c0-1.019-0.298-1.797-0.909-2.379c-1.104-1.053-2.254-1.308-3.631-0.797
		c-1.351,0.5-2.128,1.689-2.132,3.262l-0.014,3.775c-0.021,5.183-0.043,10.542,0.052,15.805c0.014,0.752-0.052,1.696-0.681,2.338
		c-0.582,0.592-1.37,0.713-2.373,0.713c-8.119-0.029-40.162-0.029-48.184,0c-1.033,0-1.84-0.121-2.421-0.713
		c-0.63-0.641-0.695-1.586-0.681-2.338c0.095-5.264,0.073-10.623,0.052-15.842l-0.014-3.737c-0.004-1.573-0.782-2.763-2.134-3.264
		c-1.378-0.508-2.529-0.253-3.629,0.797c-0.611,0.583-0.909,1.361-0.909,2.379l-0.008,6.1c-0.01,6.49-0.02,13.202,0.024,19.865
		c0.016,2.296,1.328,3.463,3.898,3.467c4.35,0.008,8.7,0.01,13.049,0.01l18.071-0.003l15.608,0.003c4.351,0,8.699-0.002,13.049-0.01
		c2.571-0.004,3.882-1.171,3.898-3.468c0.044-6.662,0.034-13.374,0.024-19.864L83.847,63.81z"/>
</g>
</svg>
