<?xml version="1.0" encoding="utf-8"?>
<!-- Generator: Adobe Illustrator 16.0.0, SVG Export Plug-In . SVG Version: 6.00 Build 0)  -->
<!DOCTYPE svg PUBLIC "-//W3C//DTD SVG 1.1//EN" "http://www.w3.org/Graphics/SVG/1.1/DTD/svg11.dtd">
<svg version="1.1" id="Layer_1" xmlns="http://www.w3.org/2000/svg" xmlns:xlink="http://www.w3.org/1999/xlink" x="0px" y="0px"
	 width="100px" height="100px" viewBox="0 0 100 100" enable-background="new 0 0 100 100" xml:space="preserve">
<g>
	<path fill="#FFFFFF" d="M60.859,33.601c-3.596-3.733-8.418-5.824-13.578-5.888l-0.258-0.001c-10.777,0-19.323,8.472-19.451,19.287
		c-0.019,10.677,8.31,19.204,18.96,19.404l0.392,0.004c10.576-0.002,19.072-8.274,19.343-18.833
		C66.4,42.324,64.479,37.361,60.859,33.601z M46.867,61.669c-7.999-0.001-14.531-6.525-14.564-14.544
		c-0.017-3.95,1.487-7.646,4.235-10.405c2.745-2.757,6.445-4.275,10.419-4.275v0.22l0.045-0.002v-0.218
		c8.12,0.023,14.509,6.444,14.544,14.616C61.557,55.093,54.972,61.646,46.867,61.669z"/>
	<path fill="#FFFFFF" d="M36.913,70.021c-3.555-1.497-6.599-3.784-9.304-6.99c-1.475-1.747-2.751-3.852-3.903-6.433
		c-0.464-1.035-1.508-1.582-2.624-1.346c-1.088,0.228-1.791,1.062-1.935,2.29c0.048,0.154,0.095,0.313,0.141,0.473
		c0.104,0.359,0.211,0.73,0.363,1.076c1.92,4.31,4.733,8.011,8.36,10.997c2.284,1.882,4.789,3.389,7.446,4.478
		c0.327,0.134,0.662,0.202,0.993,0.202c1.22,0,2.2-0.918,2.331-2.183C38.936,71.104,37.677,70.343,36.913,70.021z"/>
	<path fill="#FFFFFF" d="M74.406,35.604l-0.084-0.18c-0.715-1.523-1.451-3.092-2.36-4.508c-2.859-4.444-6.699-7.931-11.411-10.364
		c-0.736-0.38-1.501-0.685-2.115-0.929c-0.217-0.086-0.413-0.165-0.579-0.235c-1.03,0.017-1.895,0.409-2.377,1.081
		c-0.41,0.571-0.512,1.303-0.277,2.007c0.267,0.804,0.829,1.185,1.84,1.645c5.086,2.315,8.999,5.854,11.631,10.516
		c0.3,0.529,0.563,1.08,0.825,1.631c0.228,0.475,0.437,0.912,0.666,1.338c0.639,1.188,1.976,1.649,3.144,1.077
		C74.506,38.097,74.968,36.802,74.406,35.604z"/>
	<path fill="#FFFFFF" d="M53.314,40.891c-1.683-1.727-4.016-2.717-6.4-2.717l-0.167,0.001c-2.33,0.042-4.616,1.05-6.263,2.764
		c-1.611,1.676-2.472,3.835-2.424,6.079c-0.103,4.676,3.77,8.751,8.454,8.932c0.122,0.004,0.242,0.006,0.363,0.006
		c4.805,0,8.813-3.877,8.936-8.643C55.876,44.89,54.988,42.609,53.314,40.891z M46.918,51.229c-1.108-0.004-2.145-0.436-2.919-1.217
		c-0.785-0.791-1.214-1.849-1.208-2.978c0.011-2.339,1.773-4.104,4.1-4.104l0.007,0.246V42.93c1.15,0.002,2.214,0.436,2.995,1.223
		c0.776,0.781,1.201,1.839,1.196,2.977C51.082,49.352,49.172,51.229,46.918,51.229z"/>
	<path fill="#FFFFFF" d="M52.765,81.345c-5.292,0.837-10.474,0.546-15.423-0.859c-5.184-1.471-9.816-4.052-13.768-7.669
		c-5.481-5.019-9.056-11.2-10.621-18.37c-0.617-2.83-0.891-5.587-0.813-8.193c0.144-4.787,1.199-9.364,3.137-13.605
		c1.803-3.95,4.288-7.479,7.388-10.49c4.698-4.565,10.322-7.605,16.718-9.036c2.879-0.645,5.644-0.925,8.321-0.837
		c7.927,0.266,14.998,2.86,21.018,7.711c5.408,4.36,9.24,9.967,11.387,16.664c1.276,3.98,1.785,8.149,1.515,12.392
		c-0.106,1.665-0.41,3.359-0.704,4.998c-0.086,0.481-0.172,0.963-0.254,1.444c-0.329,1.945,0.63,3.404,2.501,3.807
		c1.574,0.331,3.163-0.781,3.58-2.508c0.649-2.695,1.031-5.514,1.136-8.38c0.254-7.157-1.326-14.063-4.696-20.526
		c-1.963-3.766-4.528-7.191-7.625-10.179c-5.867-5.664-12.85-9.325-20.753-10.882c-1.128-0.222-2.269-0.375-3.371-0.524
		c-0.499-0.067-0.993-0.134-1.553-0.211h-6.231c-0.086,0-0.169,0.032-0.242,0.081l-0.843,0.114
		c-0.732,0.097-1.465,0.194-2.194,0.312c-5.375,0.867-10.426,2.745-15.011,5.583c-3.105,1.92-5.88,4.179-8.247,6.713
		c-4.326,4.632-7.45,9.953-9.288,15.815c-1.449,4.632-2.085,9.309-1.89,13.899c0.306,7.173,2.322,13.847,5.996,19.838
		c1.703,2.777,3.66,5.282,5.816,7.443c3.981,3.997,8.577,7.07,13.661,9.134c4.623,1.879,9.513,2.889,14.532,3.001
		c0.317,0.007,0.635,0.011,0.95,0.011c2.278,0,4.604-0.19,6.916-0.567c0.875-0.144,1.673-0.64,2.188-1.36
		c0.449-0.628,0.634-1.352,0.52-2.038C56.202,82.178,54.688,81.04,52.765,81.345z"/>
	<path fill="#FFFFFF" d="M91.357,67.487c-2.165-2.372-4.802-3.575-7.837-3.575l-0.2,0.002c-2.695,0.046-5.088,1.059-7.11,3.01
		l-0.553,0.548c-0.184-0.169-0.372-0.344-0.555-0.523c-1.993-1.967-4.59-3.05-7.312-3.05c-2.757,0-5.381,1.107-7.386,3.117
		c-2.131,2.135-3.203,4.655-3.188,7.49c0.014,2.84,1.044,5.305,3.063,7.327c4.313,4.322,8.632,8.637,12.96,12.945
		c0.271,0.269,0.575,0.487,0.871,0.699c0.126,0.091,0.253,0.182,0.379,0.278c0.087,0.066,0.194,0.103,0.304,0.103h1.758
		c0.118,0,0.232-0.042,0.322-0.118c0.146-0.122,0.297-0.245,0.451-0.369c0.361-0.293,0.736-0.595,1.086-0.942
		c1.562-1.554,3.118-3.112,4.675-4.671c2.545-2.548,5.09-5.097,7.656-7.625c2.11-2.083,3.236-4.526,3.347-7.264
		C94.2,72.082,93.282,69.599,91.357,67.487z M75.596,88.435l-0.401-0.426c-0.547-0.582-1.082-1.152-1.633-1.706
		c-2.887-2.9-5.782-5.793-8.677-8.685c-1.458-1.458-1.821-3.037-1.08-4.691c0.776-1.731,2.313-2.807,4.009-2.807
		c1.123,0,2.171,0.466,3.029,1.349c0.825,0.846,1.662,1.681,2.503,2.511c1.372,1.351,3.261,1.346,4.635-0.017
		c0.377-0.374,0.751-0.752,1.124-1.13c0.488-0.492,0.976-0.985,1.471-1.471c1.673-1.646,4.282-1.587,5.974,0.13
		c1.754,1.777,1.764,4.232,0.023,5.97c-2.499,2.495-4.995,4.992-7.492,7.49l-3.396,3.397C75.656,88.377,75.628,88.404,75.596,88.435
		z"/>
</g>
</svg>
