<?xml version="1.0" encoding="utf-8"?>
<!-- Generator: Adobe Illustrator 16.0.0, SVG Export Plug-In . SVG Version: 6.00 Build 0)  -->
<!DOCTYPE svg PUBLIC "-//W3C//DTD SVG 1.1//EN" "http://www.w3.org/Graphics/SVG/1.1/DTD/svg11.dtd">
<svg version="1.1" id="Layer_1" xmlns="http://www.w3.org/2000/svg" xmlns:xlink="http://www.w3.org/1999/xlink" x="0px" y="0px"
	 width="100px" height="100px" viewBox="0 0 100 100" enable-background="new 0 0 100 100" xml:space="preserve">
<g>
	<path fill="#FFFFFF" d="M70.425,31.6c-0.369-1.139-1.423-1.903-2.62-1.903H56.204L52.62,18.664c-0.37-1.139-1.423-1.903-2.62-1.903
		s-2.25,0.765-2.62,1.903l-3.584,11.032H32.195c-1.197,0-2.251,0.765-2.62,1.903c-0.37,1.138,0.032,2.375,1,3.08l9.386,6.818
		l-3.584,11.032c-0.37,1.138,0.032,2.376,1.001,3.082c0.474,0.343,1.033,0.524,1.618,0.524c0.586,0,1.146-0.182,1.619-0.525
		L50,48.791l9.385,6.82c0.948,0.688,2.292,0.688,3.238,0c0.968-0.705,1.37-1.943,1-3.081l-3.584-11.032l9.386-6.818
		C70.393,33.975,70.795,32.737,70.425,31.6z"/>
	<path fill="#FFFFFF" d="M85.534,32.652c-0.262-1.774-1.935-3.066-3.766-2.801c-0.878,0.128-1.652,0.591-2.182,1.303
		c-0.528,0.711-0.749,1.586-0.62,2.463c0.208,1.414,0.313,2.858,0.313,4.292c0,1.214-0.082,2.448-0.25,3.768l-0.02,0.154
		c-0.313,2.332-0.907,4.62-1.781,6.838l-0.042,0.117C74.593,56.455,67.619,72.01,50,90.331
		C32.381,72.01,25.407,56.455,22.813,48.787l-0.058-0.155c-0.859-2.182-1.454-4.47-1.764-6.779l-0.023-0.188
		c-0.165-1.297-0.249-2.561-0.249-3.757c0-16.145,13.135-29.28,29.28-29.28c6.716,0,13.032,2.211,18.266,6.394
		c0.587,0.469,1.322,0.727,2.07,0.727c1.014,0,1.959-0.454,2.594-1.247c0.553-0.692,0.804-1.559,0.705-2.44
		s-0.534-1.671-1.227-2.224C66.078,4.778,58.12,1.992,50,1.992c-19.804,0-35.916,16.112-35.916,35.917
		c0,1.482,0.101,3.022,0.3,4.583l0.028,0.217c0.379,2.836,1.1,5.625,2.136,8.268c3.593,10.588,11.906,27.241,31.106,46.439
		c0.626,0.627,1.459,0.973,2.346,0.973s1.72-0.346,2.346-0.973c19.2-19.198,27.514-35.851,31.099-46.417
		c1.044-2.665,1.763-5.44,2.137-8.246c0.011-0.071,0.024-0.16,0.032-0.245c0.201-1.56,0.303-3.107,0.303-4.598
		C85.916,36.151,85.787,34.383,85.534,32.652z"/>
</g>
</svg>
