<?xml version="1.0" encoding="utf-8"?>
<!-- Generator: Adobe Illustrator 16.0.0, SVG Export Plug-In . SVG Version: 6.00 Build 0)  -->
<!DOCTYPE svg PUBLIC "-//W3C//DTD SVG 1.1//EN" "http://www.w3.org/Graphics/SVG/1.1/DTD/svg11.dtd">
<svg version="1.1" id="Layer_1" xmlns="http://www.w3.org/2000/svg" xmlns:xlink="http://www.w3.org/1999/xlink" x="0px" y="0px"
	 width="100px" height="100px" viewBox="0 0 100 100" enable-background="new 0 0 100 100" xml:space="preserve">
<g>
	<path fill="#FFFFFF" d="M17.707,61.571c-1.328-0.99-3.208-0.716-4.198,0.612c-8.539,11.457-5.038,23.34-4.885,23.84
		c0.396,1.291,1.584,2.122,2.868,2.122c0.291,0,0.587-0.043,0.879-0.133c1.584-0.485,2.475-2.163,1.99-3.747
		c-0.029-0.093-2.785-9.449,3.958-18.496C19.309,64.44,19.035,62.562,17.707,61.571z"/>
	<path fill="#FFFFFF" d="M44.217,36.007c-4.954-3.853-6.494-6.286-5.855-13.102C38.968,16.442,45.51,13,50,13
		c4.49,0,11.032,3.442,11.638,9.905c0.64,6.816-0.901,9.25-5.854,13.102c-2.93,2.278-3.445,4.729-3.362,6.385
		c0.209,4.18,4.383,6.919,4.858,7.218c0.286,0.18,0.602,0.311,0.932,0.386c3.605,0.818,6.664,2.009,9.152,3.231
		c0.249-0.156,0.508-0.304,0.786-0.43v-5.83c-2.329-1.017-5.008-1.963-8.028-2.688c-0.787-0.606-1.681-1.579-1.708-2.191
		c-0.014-0.313,0.39-0.829,1.054-1.345c5.966-4.641,9.031-8.947,8.146-18.398C66.724,12.867,57.778,7,50,7
		s-16.723,5.867-17.612,15.345c-0.886,9.451,2.179,13.757,8.145,18.398c0.664,0.516,1.068,1.032,1.054,1.345
		c-0.027,0.614-0.926,1.591-1.706,2.19c-12.189,2.922-18.854,9.452-19.135,9.732c-1.171,1.166-1.175,3.056-0.013,4.231
		c0.585,0.592,1.358,0.889,2.132,0.889c0.76,0,1.522-0.287,2.107-0.86c0.059-0.059,6.034-5.828,16.817-8.275
		c0.33-0.075,0.645-0.206,0.932-0.386c0.475-0.298,4.649-3.038,4.858-7.218C47.662,40.736,47.146,38.285,44.217,36.007z"/>
	<path fill="#FFFFFF" d="M94.453,64.18c-0.893-5.407-5.829-15.826-18.123-16.549c-0.957-0.055-1.905,0.287-2.606,0.948
		s-1.099,1.583-1.099,2.546v28.306c-0.174,1.351-1.589,8.694-11.85,8.696c-0.188,0.012-4.523,0.032-6.757-3.773
		c-1.12-1.909-1.12-4.53,0.001-6.678c1.518-2.906,4.893-4.703,9.502-5.062c1.927-0.149,3.368-1.833,3.218-3.761
		c-0.149-1.927-1.821-3.384-3.761-3.218c-9.584,0.744-13.614,5.833-15.164,8.8c-2.246,4.302-2.182,9.459,0.167,13.461
		c4.047,6.896,11.423,7.229,12.811,7.229c0.044,0,0.082-0.001,0.113-0.001c13.796-0.015,18.27-9.952,18.708-15.209
		c0.008-0.097,0.012-0.194,0.012-0.291V55.372c6.495,2.405,7.856,9.579,7.925,9.964c0.321,1.898,2.113,3.187,4.021,2.867
		C93.478,67.889,94.768,66.087,94.453,64.18z"/>
</g>
</svg>
